<?xml version="1.0" encoding="utf-8"?>
<!-- Generator: Adobe Illustrator 19.0.0, SVG Export Plug-In . SVG Version: 6.00 Build 0)  -->
<svg version="1.1" id="layer" xmlns="http://www.w3.org/2000/svg" xmlns:xlink="http://www.w3.org/1999/xlink" x="0px" y="0px"
	 viewBox="-153 -46 652 652" style="enable-background:new -153 -46 652 652;" xml:space="preserve">
<style type="text/css">
	.st0{fill:#D70A0A;}
	.st1{fill:#FFFFFF;}
</style>
<path d="M25.7,271.9c0-4.4-2.8-6.2-6.9-6.2H6.5v12.7h11.3C23,278.5,25.7,276.4,25.7,271.9 M37.2,271.9c0,9.4-6,15.8-17.6,15.8H6.5
	v15.2h-11v-45.8h26.1C31.6,257.2,37.2,262.6,37.2,271.9 M80.9,280.2c0-9.7-5.9-14.5-13.6-14.5c-7.6,0.1-13.6,4.8-13.6,14.5
	c0,9.4,5.9,14.2,13.6,14.2C74.9,294.4,80.9,289.6,80.9,280.2 M92.7,280.2c0,15.5-11.3,23.4-25.3,23.4c-14,0-25.3-7.9-25.3-23.4
	c0-15.8,11.3-23.7,25.3-23.7C81.4,256.4,92.7,264.4,92.7,280.2 M118.2,284l-7.5,8.5v10.3h-11v-45.7h11v21.6l19.3-21.6h13.8l-18,19.3
	l20,26.4h-13.6L118.2,284z M162.6,266.3v8.8h22.6v8.8h-22.6v9.7h25.3v9.3h-36.3v-45.7h36.3v9.1H162.6z M207.1,277.6h12
	c4.5,0,7.5-1.7,7.5-5.8c0-4.4-3-6-7.2-6h-12.3L207.1,277.6L207.1,277.6z M215,286.5h-7.8v16.4h-11v-45.7h26.6
	c10.7,0,15.5,6.1,15.5,14.2c0,7.4-4.1,13-11.1,14.5l13.6,17.2h-13.4L215,286.5z M265.1,256.5c5.6-0.1,11,0.5,16.4,1.6v9.5
	c-5.6-1.4-11.4-2.1-17.2-2.1c-5.4,0-8.7,1.7-8.8,4.4c-0.1,2.7,1.8,4,5.9,4.3l8.8,0.5c9.1,0.5,14.5,4.7,14.5,13.4
	c0,11.7-9.9,15.3-21.1,15.3c-5.7-0.1-11.4-0.6-17.1-1.6V292c5.7,1.2,11.6,1.8,17.4,1.9c7,0,10.1-1.7,10.1-5.2c0-2.9-3-4.1-7.2-4.3
	l-7.2-0.4c-9.1-0.5-14.5-4.4-14.5-12.5C244.9,261,253.8,256.5,265.1,256.5 M329.6,266.7h-15.2v36.2h-11v-36.2h-15.3v-9.5h41.5V266.7
	z M360.3,284.4l-7.5-19.2l-7.5,19.2H360.3z M363.8,293.4h-21.9l-3.7,9.5h-12l18.8-45.8h15.5l18.7,45.8h-12L363.8,293.4z
	 M396.1,277.6h12c4.5,0,7.5-1.7,7.5-5.8c0-4.4-3-6-7.2-6h-12.3L396.1,277.6L396.1,277.6z M404,286.5h-7.8v16.4h-11v-45.7h26.6
	c10.7,0,15.5,6.1,15.5,14.2c0,7.4-4.1,13-11.1,14.5l13.6,17.2h-13.4L404,286.5z M454.1,256.5c5.6-0.1,11.4,0.5,16.8,1.6v9.5
	c-5.6-1.4-11.8-2.1-17.6-2.1c-5.4,0-8.7,1.7-8.8,4.4c-0.1,2.7,1.8,4,5.9,4.3l8.8,0.5c9.1,0.5,14.8,4.7,14.8,13.4
	c0,11.7-10.2,15.3-21.5,15.3c-5.7,0-11.4-0.6-17.1-1.6V292c5.7,1.2,11.6,1.8,17.4,1.9c7,0,10.1-1.7,10.1-5.2c0-2.9-3-4.1-7.2-4.3
	l-7.2-0.4c-9-0.5-14.6-4.4-14.6-12.4C433.9,261,442.9,256.5,454.1,256.5"/>
<path class="st0" d="M-60.3,251c-13.2-13.2-21.6-21.3-21.6-21.3s-8.4,8.1-21.6,21.3c-6.9,6.9-22.6,24.1-22.6,41.3
	c0,11.4,9.3,20.7,20.7,20.7c7.5,0,14.1-4,17.7-10l0,0c0.4-0.5,1-0.8,1.6-0.8c1.1,0,2.1,0.8,1.9,1.7c-0.8,6.2-4.3,21.3-18,26.5h40.4
	c-13.7-5.1-17.1-20.3-18-26.5c-0.2-0.9,0.8-1.7,1.9-1.7c0.7,0,1.3,0.4,1.6,0.8l0,0c3.6,5.9,10.2,10,17.7,10
	c11.4,0,20.7-9.3,20.7-20.7C-37.6,275.1-53.3,257.9-60.3,251"/>
<polygon class="st1" points="-81.8,251 -76.2,268.3 -58,268.3 -72.7,278.9 -67.1,296.2 -81.8,285.6 -96.5,296.2 -90.9,278.9 
	-105.6,268.3 -87.4,268.3 "/>
</svg>
