<svg xmlns:xlink="http://www.w3.org/1999/xlink" viewBox="0 0 1296 215" fill="var(--link-color)" xmlns="http://www.w3.org/2000/svg" width="1296"  height="215" ><defs><symbol id="icon-logo" width="1296" height="215" viewBox="0 0 1296 215" fill="none" xmlns="http://www.w3.org/2000/svg"><g clip-path="url(#clip0_1_13192)" fill="none"><path d="M239.237 0H220.525V165.65H239.237V0Z" fill="black"></path><path d="M289.977 52.686H271.265V165.65H289.977V52.686Z" fill="black"></path><path d="M280.448 3.33618C273.675 3.33618 268.969 8.05261 268.969 14.8397C268.969 21.6267 273.675 26.4582 280.448 26.4582C287.221 26.4582 292.158 21.6267 292.158 14.8397C292.158 8.05261 287.336 3.33618 280.448 3.33618Z" fill="black"></path><path d="M414.531 71.2066C406.036 59.1279 391.342 50.3853 371.138 50.3853C338.88 50.3853 314.313 75.0027 314.313 108.823C314.313 142.758 338.88 167.951 371.138 167.951C391.342 167.951 406.381 158.863 414.531 147.014V160.243C414.531 183.25 397.886 197.975 371.712 197.975C355.985 197.975 342.209 191.763 331.877 180.605L319.594 192.798C331.763 207.063 350.704 215 371.712 215C409.25 215 433.243 192.568 433.243 157.483V52.6859H414.531V71.2066ZM372.975 151.041C349.441 151.041 332.796 132.175 332.796 108.823C332.796 85.5859 349.441 67.2954 372.975 67.2954C397.082 67.2954 414.761 85.5859 414.761 108.823C414.761 132.175 397.082 151.041 372.975 151.041Z" fill="black"></path><path d="M521.178 50.3852C503.27 50.3852 489.838 59.2429 483.524 69.7111V0H464.698V165.65H483.41V101.921C483.41 81.3296 499.022 67.9856 518.308 67.9856C538.512 67.9856 549.992 79.489 549.992 101.461V165.65H568.589V96.9743C568.474 67.8705 550.681 50.3852 521.178 50.3852Z" fill="black"></path><path d="M643.207 151.156C631.727 151.156 623.692 144.714 623.692 129.874V68.7908H660.771V52.6859H623.577V16.45H605.209V52.6859H584.316V68.7908H605.095V132.865C605.095 155.872 619.559 167.951 641.256 167.951C650.439 167.951 660.197 165.65 665.019 162.889L662.493 146.784C657.098 149.545 649.406 151.156 643.207 151.156Z" fill="black"></path><path d="M747.098 50.3852C729.189 50.3852 715.758 59.2429 709.444 69.7111V0H690.618V165.65H709.33V101.921C709.33 81.3296 724.942 67.9856 744.228 67.9856C764.432 67.9856 775.912 79.489 775.912 101.461V165.65H794.394V96.9743C794.394 67.8705 776.601 50.3852 747.098 50.3852Z" fill="black"></path><path d="M876.474 50.3853C842.15 50.3853 816.55 76.153 816.55 109.168C816.55 142.183 842.15 167.951 876.474 167.951C910.798 167.951 936.398 142.183 936.398 109.168C936.283 76.153 910.798 50.3853 876.474 50.3853ZM876.474 150.581C852.711 150.581 835.262 132.405 835.262 109.168C835.262 85.931 852.711 67.7555 876.474 67.7555C900.237 67.7555 917.686 85.931 917.686 109.168C917.686 132.405 900.122 150.581 876.474 150.581Z" fill="black"></path><path d="M1039.72 116.53C1039.72 137.122 1024.33 150.351 1004.82 150.351C984.728 150.351 973.363 138.962 973.363 116.99V52.686H954.766V121.477C954.766 150.466 972.444 167.951 1001.83 167.951C1019.97 167.951 1033.29 159.208 1039.6 148.625V165.65H1058.31V52.686H1039.6V116.53H1039.72Z" fill="black"></path><path d="M1129.83 100.77C1110.66 96.1691 1101.71 93.2932 1101.71 82.48C1101.71 73.1621 1110.89 67.1803 1125.24 67.1803C1139.82 67.1803 1149.12 73.9674 1154.51 81.9048L1167.25 71.3216C1160.6 60.2782 1145.56 50.3853 1125.24 50.3853C1102.05 50.3853 1083.34 63.0391 1083.34 82.8251C1083.34 104.452 1100.44 111.929 1124.55 117.335C1143.61 121.592 1151.3 124.813 1151.3 135.281C1151.3 144.944 1140.85 151.156 1126.16 151.156C1109.86 151.156 1098.72 143.333 1092.52 132.06L1078.17 142.528C1086.32 158.058 1102.85 167.951 1126.16 167.951C1149.81 167.951 1170.01 155.297 1170.01 135.281C1169.89 114.46 1154.05 106.637 1129.83 100.77Z" fill="black"></path><path d="M1295.02 103.416C1295.02 70.2863 1268.85 50.3853 1240.72 50.3853C1208.7 50.3853 1182.75 76.038 1182.75 109.168C1182.75 142.298 1207.78 167.951 1241.64 167.951C1262.77 167.951 1281.02 158.288 1291.35 142.298L1277.11 131.945C1268.96 143.448 1257.37 150.926 1241.53 150.926C1218.11 150.926 1202.61 134.361 1201.46 113.769H1294.33C1294.91 110.548 1295.02 106.752 1295.02 103.416ZM1202.27 98.3548C1205.02 79.7191 1221.32 67.4104 1240.72 67.4104C1259.9 67.4104 1275.05 79.7191 1276.31 98.3548H1202.27Z" fill="black"></path><path d="M155.091 110.434H79.325L61.9907 131.14H154.976C160.716 131.14 165.308 126.538 165.308 120.787C165.423 115.035 160.716 110.434 155.091 110.434Z" fill="black"></path><path d="M82.9981 30.9444C86.6716 26.5731 86.0976 20.0161 81.7354 16.335C77.3731 12.6539 70.8297 13.2291 67.1562 17.6004L0 97.8947V130.104L82.9981 30.9444Z" fill="black"></path><path d="M155.091 144.944H32.4875L113.649 47.9696L139.593 17.0252C143.266 12.6539 142.693 6.09694 138.33 2.41583C133.968 -1.26528 127.425 -0.69011 123.751 3.68121L5.51025 144.944L0 151.501V165.65H6.54342H15.1532H155.091C160.83 165.65 165.422 161.049 165.422 155.297C165.422 149.545 160.716 144.944 155.091 144.944Z" fill="black"></path></g><defs><clipPath id="clip0_1_13192"><rect width="1295.02" height="215" fill="white"></rect></clipPath></defs></symbol></defs><use href="#icon-logo"></use></svg>